<?xml version="1.0" encoding="utf-8"?>
<!-- Generator: Adobe Illustrator 19.0.0, SVG Export Plug-In . SVG Version: 6.00 Build 0)  -->
<svg version="1.1" id="Layer_1" xmlns="http://www.w3.org/2000/svg" xmlns:xlink="http://www.w3.org/1999/xlink" x="0px" y="0px"
	 viewBox="-159.4 -0.1 1000 264" style="enable-background:new -159.4 -0.1 1000 264;" xml:space="preserve">
<style type="text/css">
	.st0{fill:#515151;}
	.st1{fill:#0C0C0C;}
</style>
<rect x="138.7" y="35.7" class="st0" width="2.9" height="199.1"/>
<path class="st1" d="M-30.6,13.6c67.1,0,122.7,55.2,122.7,121.7c0,68.2-54.9,123.7-122.3,123.7c-68.3,0-123.2-54.8-123.2-122.9
	C-153.3,68.4-98.3,13.6-30.6,13.6 M-30.7,243.9c1.4,0,2.3,0,3.2,0c24.3-1,46.2-8.8,64.8-24.5c31.3-26.6,44.5-60.6,38.1-101.2
	C66.5,62.8,15.2,24.1-41.1,29.3c-1.2,0.1-2.9,1.2-3.5,2.3c-16.9,28.9-33.6,57.9-50.4,87c-0.4,0.7-0.6,1.4-1.2,2.6H-31
	c-5.6,9.6-10.9,18.6-16.1,27.7c-1.1,1.9-2.2,2.5-4.3,2.5c-25.6-0.1-51.2-0.1-76.8-0.1c-0.9,0-1.7-0.1-3.1-0.2
	c11.4-19.7,22.6-39.1,33.8-58.5C-86.4,73.4-75.2,54-63.6,34c-1.9,0.6-3,0.9-4.1,1.3c-50.3,18.4-80.1,71.4-67.8,123.7
	c10.5,44.9,39.7,72.3,84.5,82.9c2.5,0.6,3.8,0,5.2-2.3c16.4-28.6,32.9-57.2,49.3-85.8c0.4-0.7,0.7-1.4,1.2-2.6h-35
	c0.5-1,0.7-1.5,1-2c4.9-8.5,9.8-16.9,14.6-25.4c1.1-2.1,2.4-2.8,4.8-2.8c24.8,0.1,49.6,0,74.3,0h5.1c-0.3,0.9-0.3,1.3-0.5,1.6
	c-5.2,9.1-10.4,18.2-15.7,27.2c-0.5,0.8-2.1,1.4-3.3,1.4c-8.3,0.1-16.7,0.1-25,0c-2,0-3.1,0.7-4.1,2.4c-16.5,28.8-33,57.6-49.6,86.3
	C-29.4,241.2-29.9,242.3-30.7,243.9"/>
<g>
	<path class="st1" d="M664.7,79L664.7,79c-8.6-8.6-19.1-13-31.3-13c-7.1,0-13.7,1.5-19.6,4.5c-5.9-3-12.5-4.5-19.6-4.5
		c-12.2,0-22.8,4.4-31.4,13c-8.6,8.6-13,19.1-13,31.3c0,12.2,4.4,22.8,13,31.4c8.6,8.6,19.2,13,31.4,13c7.1,0,13.6-1.5,19.6-4.5
		c5.9,2.9,12.5,4.5,19.6,4.5c12.2,0,22.7-4.4,31.3-13c8.6-8.6,13-19.2,13-31.4C677.7,98.1,673.3,87.6,664.7,79 M594.3,144.4
		c-9.5,0-17.4-3.3-24.1-10c-6.7-6.7-10-14.6-10-24.1c0-9.4,3.3-17.3,10-24c6.7-6.7,14.6-10,24.1-10c3.3,0,6.5,0.4,9.4,1.3
		c-0.5,0.5-1.1,1-1.6,1.5c-8.6,8.6-13,19.1-13,31.3c0,12.2,4.4,22.8,13,31.4c0.5,0.5,1.1,1,1.6,1.5
		C600.7,144,597.6,144.4,594.3,144.4 M618.3,86.2c6.7,6.7,10,14.6,10,24c0,9.5-3.3,17.4-10,24.1c-1.4,1.4-2.9,2.7-4.5,3.8
		c-1.5-1.1-3-2.4-4.5-3.8c-6.7-6.7-10-14.6-10-24.1c0-9.4,3.3-17.3,10-24c1.4-1.4,2.9-2.7,4.5-3.8C615.4,83.6,616.9,84.8,618.3,86.2
		 M657.5,134.4c-6.7,6.7-14.6,10-24,10c-3.4,0-6.5-0.4-9.5-1.3c0.5-0.5,1.1-1,1.6-1.5c8.6-8.6,13-19.2,13-31.4
		c0-12.2-4.4-22.7-13-31.3c-0.5-0.5-1.1-1-1.6-1.5c3-0.8,6.1-1.3,9.5-1.3c9.4,0,17.3,3.3,24,10c6.7,6.7,10,14.6,10,24
		C667.5,119.8,664.2,127.7,657.5,134.4"/>
	<path class="st1" d="M214.2,158.5c-10.9,0-20.5-3.2-28.6-9.6c-4.7-4.3-8.2-8.6-10.4-12.8l-1-1.8l6.2-3l0.9,1.7
		c1.8,3.5,4.7,7.1,8.8,10.7c6.7,5.3,14.7,8,23.9,8c1,0,2.1,0,3.1-0.1c7.8-0.5,14.4-3.4,19.8-8.5c2.4-2.2,4.1-5,5-8.3
		c0.5-1.7,0.7-3.4,0.7-5c0-3-0.8-6-2.5-8.9c-2.6-4.3-6.2-7-11.1-8.3l-27.7-7.5c-7.4-2-13-5.9-16.8-11.8c-2.6-3.9-3.9-8.2-3.9-12.8
		c0-2.3,0.3-4.8,1-7.3c2-7.4,6.3-13.1,12.9-17c4.3-2.5,8.8-3.9,13.4-4.2c1.5-0.2,3-0.2,4.5-0.2c7.3,0,14.5,1.8,21.2,5.3
		c4.4,2.6,8.5,6.1,12.2,10.3l1.5,1.7l-5.7,3.8l-1.1-1.3c-3.1-3.6-6.5-6.5-10.2-8.5c-5.7-3-11.7-4.5-17.8-4.5c-1.3,0-2.7,0.1-4,0.2
		c-3.6,0.3-7.1,1.4-10.4,3.3c-5.1,3-8.3,7.2-9.8,12.8c-0.6,2-0.9,3.9-0.9,5.6c0,3.3,0.9,6.2,2.9,9c2.9,4.4,7.1,7.3,12.8,8.9
		l27.8,7.4c6.6,1.8,11.8,5.7,15.2,11.6c2.2,3.9,3.4,8,3.4,12.3c0,2.2-0.3,4.4-1,6.8c-1.1,4.6-3.4,8.5-6.6,11.6l-1.4,1.3l-0.1-0.1
		c-6.3,5.5-13.9,8.5-22.7,9.1C216.5,158.5,215.4,158.5,214.2,158.5"/>
	<path class="st1" d="M299.5,157.2c-11.6,0-21.7-4.2-29.9-12.4c-8.2-8.2-12.4-18.3-12.4-29.9s4.2-21.7,12.4-29.9
		c8.2-8.2,18.3-12.4,29.9-12.4c11.6,0,21.7,4.1,29.9,12.3l0.2,0.2l0.1,0.3l1.5,1.4l-1.6,1.3l-2.1,2l-51.4,51.4
		c6.5,5.7,14.3,8.7,23.3,8.7c9.7,0,17.7-3.2,24.5-9.8l1.4-1.4l4.7,5l-1.4,1.4C320.6,153.3,310.8,157.2,299.5,157.2 M299.5,79.6
		c-9.8,0-18.2,3.5-25.1,10.3c-7,7-10.3,15.2-10.3,25.1c0,8.3,2.5,15.6,7.5,21.8L321.3,87C315.1,82.1,307.8,79.6,299.5,79.6"/>
	<path class="st1" d="M377.6,157.2c-11.6,0-21.7-4.2-29.9-12.4c-8.2-8.2-12.4-18.3-12.4-29.9s4.2-21.7,12.4-29.9
		c8.2-8.2,18.3-12.4,29.9-12.4c11.6,0,21.7,4.1,29.9,12.3c0.9,0.9,1.8,1.9,2.6,2.9V75.6h6.8v78.7h-6.8V142c-0.8,1-1.7,1.9-2.6,2.8
		C399.3,153,389.3,157.2,377.6,157.2 M377.6,79.6c-9.8,0-18.2,3.5-25.1,10.3c-7,7-10.3,15.2-10.3,25.1c0,9.8,3.5,18.2,10.3,25.1
		c6.9,6.9,15.3,10.3,25.1,10.3c9.9,0,18.1-3.4,25.1-10.3c3.2-3.2,5.7-6.8,7.5-10.7v-28.6c-1.7-3.9-4.2-7.5-7.5-10.7
		C395.7,83,387.5,79.6,377.6,79.6"/>
	<polygon class="st1" points="516.9,154.4 510.8,154.4 486.5,87.5 462.2,154.4 456.1,154.4 427.5,75.6 435,75.6 459.2,142.3 
		483.4,75.6 489.6,75.6 513.9,142.3 538,75.6 545.5,75.6 	"/>
	<path class="st1" d="M729.1,157.2c-11.6,0-21.7-4.2-29.9-12.4c-8.2-8.2-12.4-18.3-12.4-29.9s4.2-21.7,12.4-29.9
		c8.2-8.2,18.3-12.4,29.9-12.4c11.6,0,21.6,4.1,29.8,12.3c1,1,1.9,1.9,2.7,3V55.5h6.8v98.9h-6.8v-12.5c-0.9,1-1.8,2-2.7,2.9
		C750.7,153,740.7,157.2,729.1,157.2 M729.1,79.6c-9.8,0-18.2,3.5-25.1,10.3c-6.9,6.9-10.3,15.3-10.3,25.1s3.5,18.2,10.3,25.1
		c6.9,6.9,15.3,10.3,25.1,10.3c9.8,0,18.2-3.5,25.1-10.3c3.2-3.2,5.7-6.8,7.5-10.7v-28.6c-1.7-3.9-4.2-7.5-7.5-10.7
		C747.2,83.1,738.8,79.6,729.1,79.6"/>
	<path class="st1" d="M803.7,158.4c-9,0-17.6-2.4-25.7-7.1c-0.3-0.2-0.4-0.2-0.5-0.3l-1.9-1.2l4-5.7l2.2,1.5
		c7,3.8,14.4,5.7,22.1,5.7c1.8,0,3.8-0.1,5.8-0.3c3.2-0.4,6.5-1.4,9.7-3.2c3.4-2.2,5.6-5.4,6.6-9.7c0.4-1.4,0.5-2.7,0.5-3.9
		c0-2.7-0.7-5.1-2-7.4c-2-3.3-5.3-5.6-10-7l-16.9-4v0.1l-2.5-0.6c-6.7-1.9-11.7-5.2-14.8-9.9c-2.3-3.3-3.4-7.1-3.4-11.2
		c0-1.6,0.2-3.2,0.5-5c1.4-5.6,4.4-9.9,8.8-12.9c4.3-3,10-4.6,16.8-4.7h0.9c10.4,0,19.7,2.7,27.6,8.2l0.4,0.3l2.1,1.4l-5,4.8
		l-2.4-1.7c-6.5-4.1-14.2-6.2-22.6-6.2H803c-5.4,0.1-9.8,1.3-13,3.5c-3.1,2.2-5.1,5-6.1,8.7c-0.3,1.2-0.4,2.5-0.4,3.6
		c0,2.7,0.8,5.1,2.4,7.3c2.1,3,5.4,5.3,9.9,6.8l0.8,0.2l19.7,4.6c6.4,1.8,11.1,5.2,14,10.1c2,3.4,3,7.1,3,11c0,1.7-0.2,3.6-0.6,5.4
		c-1.4,6.1-4.8,10.8-10,14c-3.9,2.1-8,3.5-12.2,4.2C808.2,158.2,805.9,158.4,803.7,158.4"/>
	<g>
		<path class="st1" d="M339.3,192.9c0-2.3-0.4-4.2-1-5.8c-0.7-1.6-1.7-2.9-3-3.9c-1.3-1-2.8-1.7-4.5-2.1c-1.7-0.4-3.5-0.6-5.6-0.6
			H313v45.3h3.3v-20.5h8.7c2.1,0,3.8,0.2,5.1,0.5c1.2,0.3,2.3,0.8,3,1.6c0.7,0.7,1.3,1.7,1.6,3c0.4,1.3,0.5,3,0.5,5v10.4h3.3v-10.2
			c0-1.7-0.1-3.2-0.3-4.6c-0.2-1.5-0.6-2.8-1.3-4c-0.7-1.2-1.7-2.1-2.9-2.9c-0.4-0.2-0.8-0.4-1.3-0.6c1.4-0.7,2.7-1.6,3.8-2.8
			C338.3,198.7,339.3,196.1,339.3,192.9 M332.7,199.8c-1,0.8-2.2,1.4-3.6,1.7c-1.4,0.4-2.8,0.6-4.3,0.6h-8.6v-18.3h9.2
			c3.8,0,6.5,0.8,8.1,2.3c1.6,1.5,2.4,3.6,2.4,6.4c0,1.7-0.3,3.2-0.9,4.4C334.5,198,333.7,199,332.7,199.8"/>
		<path class="st1" d="M377.4,214.2c-0.1,1.4-0.4,2.7-1,3.8c-0.6,1.1-1.3,2-2.2,2.8c-0.9,0.8-2,1.4-3.1,1.8c-2.7,0.9-6,0.8-8.4-0.2
			c-1.3-0.6-2.4-1.4-3.4-2.3c-0.9-1-1.7-2.2-2.3-3.5c-0.5-1.1-0.8-2.3-1.1-3.5l24.8-9.1l-0.1-0.8c-0.2-1.7-0.7-3.2-1.4-4.6
			c-0.7-1.3-1.7-2.5-2.8-3.5c-1.1-0.9-2.4-1.7-3.9-2.2c-1.5-0.5-3-0.8-4.7-0.8c-2.6,0-4.9,0.5-6.9,1.5c-1.9,1-3.6,2.3-4.8,4
			c-1.3,1.6-2.2,3.6-2.8,5.7c-0.6,2.1-0.9,4.4-0.9,6.7c0,2.2,0.3,4.3,1,6.2c0.6,2,1.6,3.7,2.8,5.2c1.2,1.5,2.8,2.8,4.6,3.7
			c1.8,0.9,4,1.4,6.4,1.4c1.8,0,3.5-0.3,5.1-0.8c1.6-0.6,3-1.4,4.2-2.5c1.2-1.1,2.1-2.4,2.9-3.8v0c0.7-1.5,1.2-3.2,1.4-5l0.1-1.1
			h-3.3L377.4,214.2z M367.8,195.5c2.4,0,4.4,0.6,6.2,1.9c1.5,1.1,2.5,2.6,3,4.5l-21.4,7.8c0-1.8,0.3-3.6,0.7-5.3
			c0.5-1.7,1.2-3.3,2.2-4.6c1-1.3,2.2-2.4,3.7-3.1C363.9,195.9,365.7,195.5,367.8,195.5"/>
		<path class="st1" d="M414.7,210.2c-1-0.7-2.2-1.2-3.4-1.5c-1.2-0.3-2.4-0.7-3.6-1c-1.2-0.3-2.4-0.6-3.7-0.8
			c-1.2-0.3-2.4-0.6-3.5-1.1c-1-0.4-1.8-1-2.5-1.8c-0.6-0.7-0.9-1.7-0.9-2.9c0-0.1,0-0.4,0.2-1.2c0.1-0.5,0.4-1.1,0.9-1.8
			c0.5-0.6,1.3-1.2,2.4-1.7c1.1-0.5,2.7-0.8,4.7-0.8c1.4,0,2.7,0.2,3.8,0.4c1.1,0.3,2,0.7,2.8,1.3c0.8,0.6,1.3,1.3,1.7,2.3
			c0.4,0.9,0.6,2.1,0.6,3.5v1h3.3v-1c0-3.8-1.1-6.6-3.4-8.3c-2.2-1.7-5.1-2.6-8.8-2.6c-2,0-3.8,0.3-5.2,0.8
			c-1.4,0.5-2.6,1.2-3.6,2.1c-1,0.9-1.7,1.8-2.1,2.9c-0.4,1-0.6,2.1-0.6,3c0,1.8,0.4,3.3,1.1,4.5c0.7,1.1,1.7,2,2.8,2.6
			c1.1,0.6,2.3,1.1,3.7,1.4c1.3,0.3,2.5,0.6,3.8,0.9c1.3,0.3,2.6,0.6,3.9,1c1.2,0.3,2.2,0.7,3.1,1.2c0.8,0.5,1.5,1.1,2.1,1.8
			c0.5,0.7,0.7,1.6,0.7,2.7c0,1.1-0.2,2-0.8,2.8c-0.5,0.8-1.2,1.4-2,1.9c-0.9,0.5-1.8,0.9-2.9,1.1c-1.1,0.2-2.2,0.4-3.2,0.4
			c-3.3,0-5.9-0.7-7.7-2.2c-1.7-1.4-2.6-3.7-2.6-6.8v-1h-3.3v1c0,4.2,1.2,7.3,3.5,9.3c2.3,2,5.7,3,10,3c1.4,0,2.8-0.2,4.2-0.5
			c1.4-0.3,2.8-0.9,3.9-1.6c1.2-0.8,2.2-1.8,2.9-3c0.8-1.2,1.1-2.8,1.1-4.5c0-1.7-0.3-3.1-1-4.2
			C416.6,211.7,415.7,210.9,414.7,210.2"/>
		<rect x="431.6" y="192.9" class="st1" width="3.3" height="32.9"/>
		<path class="st1" d="M431.4,180.3c-0.5,0.5-0.8,1.2-0.8,1.9c0,0.7,0.3,1.4,0.8,1.9c0.5,0.5,1.2,0.8,1.9,0.8s1.4-0.3,1.9-0.8
			c0.5-0.5,0.8-1.2,0.8-1.9c0-0.7-0.3-1.4-0.8-1.9C434.1,179.3,432.4,179.3,431.4,180.3"/>
		<path class="st1" d="M474,196.1c-0.8-0.9-1.8-1.6-2.9-2.2c-2-1.1-4.3-1.7-6.7-1.7c-2.6,0-5,0.5-6.9,1.5c-1.9,1-3.6,2.3-4.8,4
			c-1.3,1.6-2.2,3.5-2.8,5.7c-0.6,2.1-0.9,4.4-0.9,6.7c0,2.2,0.3,4.3,1,6.3c0.6,2,1.6,3.7,2.8,5.3c1.2,1.5,2.8,2.8,4.6,3.6
			c1.8,0.9,4,1.3,6.3,1.3c2.8,0,5.3-0.6,7.4-1.9c1.1-0.6,2-1.4,2.8-2.3v3.5h3.3v-45.3H474V196.1z M463.8,223.3
			c-1.9,0-3.5-0.4-4.9-1.1c-1.4-0.7-2.6-1.7-3.5-2.9c-1-1.2-1.7-2.6-2.2-4.2c-0.5-1.6-0.8-3.3-0.8-5.1c0-1.7,0.2-3.5,0.7-5.2
			c0.4-1.7,1.1-3.3,2.1-4.7c0.9-1.4,2.2-2.5,3.7-3.3c1.5-0.8,3.4-1.3,5.7-1.3c1.1,0,2.3,0.2,3.5,0.6c1.1,0.4,2.2,1,3.1,1.7
			c0.9,0.7,1.6,1.6,2.2,2.5c0.5,0.9,0.8,1.9,0.8,3v11c0,1.4-0.3,2.6-0.8,3.7c-0.5,1.1-1.3,2-2.2,2.8c-0.9,0.8-2,1.4-3.3,1.8
			C466.5,223.1,465.2,223.3,463.8,223.3"/>
		<path class="st1" d="M516.5,214.2c-0.1,1.4-0.4,2.7-1,3.8c-0.6,1.1-1.3,2.1-2.2,2.8c-0.9,0.8-1.9,1.4-3.1,1.8
			c-2.7,0.9-6,0.8-8.4-0.2c-1.3-0.6-2.4-1.4-3.4-2.3c-0.9-1-1.7-2.2-2.3-3.5c-0.5-1.1-0.8-2.3-1.1-3.5l24.8-9.1l-0.1-0.8
			c-0.2-1.7-0.7-3.2-1.4-4.6c-0.7-1.3-1.7-2.5-2.8-3.5c-1.1-0.9-2.4-1.7-3.9-2.2c-1.5-0.5-3-0.8-4.7-0.8c-2.6,0-4.9,0.5-6.9,1.5
			c-1.9,1-3.6,2.3-4.8,4c-1.3,1.6-2.2,3.6-2.8,5.7c-0.6,2.1-0.9,4.4-0.9,6.7c0,2.2,0.3,4.3,1,6.2c0.6,2,1.6,3.7,2.8,5.2
			c1.2,1.5,2.8,2.8,4.6,3.7c1.8,0.9,4,1.4,6.4,1.4c1.8,0,3.5-0.3,5.1-0.8c1.6-0.6,3-1.4,4.2-2.5c1.2-1.1,2.1-2.4,2.9-3.8v0
			c0.7-1.5,1.2-3.2,1.4-5l0.1-1.1h-3.3L516.5,214.2z M506.9,195.5c2.4,0,4.4,0.6,6.2,1.9c1.5,1.1,2.5,2.6,3,4.5l-21.4,7.8
			c0-1.8,0.3-3.6,0.7-5.3c0.5-1.7,1.2-3.3,2.2-4.6c1-1.3,2.2-2.4,3.7-3.1C503,195.9,504.8,195.5,506.9,195.5"/>
		<path class="st1" d="M547.4,192.2c-2.9,0-5.5,0.8-7.7,2.3c-1,0.7-1.8,1.5-2.5,2.4v-4h-3.3v32.9h3.3v-18.5c0-1.6,0.2-3.2,0.7-4.6
			c0.4-1.4,1.1-2.7,2-3.8c0.8-1.1,1.9-1.9,3.2-2.5c1.2-0.6,2.7-0.9,4.4-0.9c2.8,0,5,0.8,6.5,2.4c1.5,1.6,2.3,3.8,2.3,6.7v21.3h3.3
			v-21.5c0-3.7-1.1-6.6-3.2-8.8C554,193.3,551,192.2,547.4,192.2"/>
		<path class="st1" d="M579.8,199.7c1-1.3,2.2-2.4,3.7-3.1c1.5-0.8,3.3-1.1,5.4-1.1c2.6,0,4.7,0.7,6.4,2.1c1.7,1.4,2.7,3.3,3.1,5.9
			l0.1,0.9h3.3l-0.2-1.2c-0.2-1.7-0.7-3.2-1.4-4.6c-0.7-1.4-1.7-2.5-2.8-3.5c-1.1-0.9-2.4-1.7-3.9-2.2c-1.5-0.5-3-0.8-4.7-0.8
			c-2.6,0-4.9,0.5-6.9,1.5c-1.9,1-3.6,2.3-4.8,4c-1.3,1.6-2.2,3.6-2.8,5.7c-0.6,2.1-0.9,4.4-0.9,6.7c0,2.2,0.3,4.3,1,6.2
			c0.6,2,1.6,3.7,2.8,5.2c1.2,1.5,2.8,2.8,4.6,3.7c1.8,0.9,4,1.4,6.4,1.4c1.8,0,3.5-0.3,5.1-0.8c1.6-0.6,3-1.4,4.2-2.5
			c1.2-1.1,2.1-2.4,2.9-3.8v0c0.7-1.5,1.2-3.2,1.4-5l0.1-1.1h-3.3l-0.1,1c-0.1,1.4-0.4,2.7-1,3.8c-0.6,1.1-1.3,2.1-2.2,2.8
			c-0.9,0.8-1.9,1.4-3.1,1.8c-1.2,0.4-2.5,0.6-3.9,0.6c-1.9,0-3.5-0.4-4.9-1.1c-1.4-0.7-2.6-1.7-3.5-2.9c-1-1.2-1.7-2.6-2.2-4.2
			c-0.5-1.6-0.8-3.3-0.8-5.1c0-2,0.3-3.9,0.7-5.7C578,202.6,578.8,201.1,579.8,199.7"/>
		<path class="st1" d="M639.9,214.2c-0.1,1.4-0.4,2.7-1,3.8c-0.6,1.1-1.3,2.1-2.2,2.8c-0.9,0.8-1.9,1.4-3.1,1.8
			c-2.7,0.9-6,0.8-8.4-0.2c-1.3-0.6-2.4-1.4-3.4-2.3c-0.9-1-1.7-2.2-2.3-3.5c-0.5-1.1-0.8-2.3-1.1-3.5l24.8-9.1l-0.1-0.8
			c-0.2-1.7-0.7-3.2-1.4-4.6c-0.7-1.3-1.7-2.5-2.8-3.5c-1.1-0.9-2.4-1.7-3.9-2.2c-1.5-0.5-3-0.8-4.7-0.8c-2.6,0-4.9,0.5-6.9,1.5
			c-1.9,1-3.6,2.3-4.8,4c-1.3,1.6-2.2,3.6-2.8,5.7c-0.6,2.1-0.9,4.4-0.9,6.7c0,2.2,0.3,4.3,1,6.2c0.6,2,1.6,3.7,2.8,5.2
			c1.2,1.5,2.8,2.8,4.6,3.7c1.8,0.9,4,1.4,6.4,1.4c1.8,0,3.5-0.3,5.1-0.8c1.6-0.6,3-1.4,4.2-2.5c1.2-1.1,2.1-2.4,2.9-3.8v0
			c0.7-1.5,1.2-3.2,1.4-5l0.1-1.1H640L639.9,214.2z M630.4,195.5c2.4,0,4.4,0.6,6.2,1.9c1.5,1.1,2.5,2.6,3,4.5l-21.4,7.8
			c0-1.8,0.3-3.6,0.7-5.3c0.5-1.7,1.2-3.3,2.2-4.6c1-1.3,2.2-2.4,3.7-3.1C626.4,195.9,628.3,195.5,630.4,195.5"/>
		<path class="st1" d="M679.8,212.8c-0.7-1-1.5-1.9-2.6-2.6c-1-0.7-2.2-1.2-3.4-1.5c-1.2-0.3-2.4-0.7-3.6-1
			c-1.2-0.3-2.4-0.6-3.7-0.8c-1.2-0.3-2.4-0.6-3.5-1.1c-1-0.4-1.8-1-2.5-1.8c-0.6-0.7-0.9-1.7-0.9-2.9c0-0.1,0-0.4,0.2-1.2
			c0.1-0.5,0.4-1.1,0.9-1.8c0.5-0.6,1.3-1.2,2.4-1.7c1.1-0.5,2.7-0.8,4.7-0.8c1.4,0,2.7,0.1,3.8,0.4c1.1,0.3,2,0.7,2.8,1.3
			c0.8,0.6,1.3,1.3,1.7,2.3c0.4,0.9,0.6,2.1,0.6,3.5v1h3.3v-1c0-3.8-1.1-6.6-3.4-8.3c-2.2-1.7-5.1-2.6-8.8-2.6c-2,0-3.8,0.3-5.2,0.8
			c-1.4,0.5-2.6,1.2-3.6,2.1c-1,0.9-1.7,1.8-2.1,2.9c-0.4,1-0.6,2.1-0.6,3c0,1.8,0.4,3.3,1.1,4.5c0.7,1.1,1.7,2,2.8,2.6
			c1.1,0.6,2.3,1.1,3.7,1.4c1.3,0.3,2.5,0.6,3.8,0.9c1.3,0.3,2.6,0.6,3.9,1c1.2,0.3,2.2,0.7,3.1,1.2c0.8,0.5,1.5,1.1,2.1,1.8
			c0.5,0.7,0.7,1.6,0.7,2.7c0,1.1-0.2,2-0.8,2.8c-0.5,0.8-1.2,1.4-2,1.9c-0.9,0.5-1.8,0.9-2.9,1.1c-1.1,0.2-2.2,0.4-3.2,0.4
			c-3.3,0-5.9-0.7-7.7-2.2c-1.7-1.4-2.6-3.7-2.6-6.8v-1h-3.3v1c0,4.2,1.2,7.3,3.5,9.3c2.3,2,5.7,3,10,3c1.4,0,2.8-0.2,4.2-0.5
			c1.4-0.3,2.8-0.9,3.9-1.6c1.2-0.8,2.2-1.8,2.9-3c0.8-1.2,1.1-2.8,1.1-4.5C680.8,215.3,680.5,213.9,679.8,212.8"/>
		<rect x="177.1" y="203.5" class="st1" width="114.1" height="5.8"/>
		<rect x="701.9" y="203.5" class="st1" width="114.1" height="5.8"/>
	</g>
</g>
</svg>
